<?xml version="1.0"?>
<svg xmlns="http://www.w3.org/2000/svg" id="filled_outline" data-name="filled outline" viewBox="0 0 512 512" width="512" height="512"><path d="M168,232l-8,24H72L56.31379,201.65564,56,199.43706V138.57032a32,32,0,0,1,16.12355-27.78378L112,88l32,8,29.65685,29.65685A8,8,0,0,1,176,131.31371V192Z" style="fill:#3b9298"/><path d="M104,56h48a0,0,0,0,1,0,0V80a24,24,0,0,1-24,24h0a24,24,0,0,1-24-24V56A0,0,0,0,1,104,56Z" style="fill:#f5c99d"/><path d="M112,24h32a8,8,0,0,1,8,8V56a0,0,0,0,1,0,0H104a0,0,0,0,1,0,0V32A8,8,0,0,1,112,24Z" style="fill:#eebf3e"/><path d="M216,224l-54.646-39.03288a8,8,0,0,1-2.21-2.3939l-15.91072-26.51786A114.20123,114.20123,0,0,0,126.0589,134.0589l0,0A48,48,0,0,0,92.11775,120H72a16,16,0,0,0-16,16v28a8,8,0,0,0,3.2,6.4l59.85,44.88748a7.99964,7.99964,0,0,0,2.066,1.11835L202.268,245.91562Z" style="fill:#4fbfcb"/><path d="M308.06882,416H443.93118a16,16,0,0,0,15.38438-11.60446l28.06882-98.24088A15.9999,15.9999,0,0,0,488,301.75912V288a16,16,0,0,0-16-16H280a16,16,0,0,0-16,16v13.75912a15.9999,15.9999,0,0,0,.61562,4.39554l28.06882,98.24088A16,16,0,0,0,308.06882,416Z" style="fill:#4fbfcb"/><circle cx="312" cy="472" r="16" style="fill:#eebf3e"/><circle cx="432" cy="472" r="16" style="fill:#eebf3e"/><path d="M376,272V216a8,8,0,0,1,8-8h80a8,8,0,0,1,8,8v56" style="fill:#cc4c4d"/><path d="M280,272V192a8,8,0,0,1,8-8h80a8,8,0,0,1,8,8v80Z" style="fill:#eebf3e"/><path d="M72,383.0889a8,8,0,0,1-.20487,1.79887L50.26128,478.20112A8,8,0,0,0,58.05641,488h5.81408A12.62514,12.62514,0,0,0,75.364,480.59917l36.25489-79.76076a8.00019,8.00019,0,0,0,.56172-1.74149L120,360V256H72Z" style="fill:#b0a9a5"/><path d="M72,256v26.3875a16,16,0,0,0,3.5061,9.99512l28.10432,35.1304a7.99982,7.99982,0,0,1,.699,1.02845l30.955,54.17126a7.99981,7.99981,0,0,1,.961,2.75265l14.73094,95.75108A8,8,0,0,0,158.86335,488h9.6877a8,8,0,0,0,7.97967-7.43l7.36475-103.10653a8.00023,8.00023,0,0,0-.31706-2.86876l-23.241-77.47006A7.99989,7.99989,0,0,1,160,294.82585V256Z" style="fill:#efe8e0"/><path d="M216,224h8a8,8,0,0,1,8,8v16a8,8,0,0,1-8,8h-8a16,16,0,0,1-16-16v0A16,16,0,0,1,216,224Z" style="fill:#eebf3e"/><path d="M480,265.47412V216a16.01833,16.01833,0,0,0-16-16H448v-8a24,24,0,0,0-48,0v8H384v-8a16.01833,16.01833,0,0,0-16-16H352v-8a24,24,0,0,0-48,0v8H288a16.01833,16.01833,0,0,0-16,16v72.44775l-12.47656-20.79931A24.07708,24.07708,0,0,0,240,232.14014V232a16.01833,16.01833,0,0,0-16-16h-5.43555L184,191.313V131.3125A15.89068,15.89068,0,0,0,179.3125,120L155.46582,96.15332A31.64249,31.64249,0,0,0,160,80V32a16.01833,16.01833,0,0,0-16-16H112A16.01833,16.01833,0,0,0,96,32V80a31.72143,31.72143,0,0,0,.94629,7.38867L56.0625,110.75A16.03525,16.03525,0,0,0,48,124.64453v74.793l16,57.439V383.08594l-21.53906,93.3164A16.00155,16.00155,0,0,0,58.05469,496h5.8125a20.68685,20.68685,0,0,0,18.78125-12.09375l36.23437-79.71484a15.46634,15.46634,0,0,0,1.14063-3.52344l4.22363-21.11621,4.07324,7.12793,14.72657,95.7539A15.92282,15.92282,0,0,0,158.86719,496h9.6875a16.04027,16.04027,0,0,0,15.95312-14.85938l7.375-103.16015a16.12583,16.12583,0,0,0-.64062-5.6875L168,294.82422v-37.5293l4.55566-13.67041,22.72071,8.26172A23.92005,23.92005,0,0,0,216,264h8a16.01047,16.01047,0,0,0,15.98584-15.86182,8.01007,8.01007,0,0,1,5.81885,3.74854l13.97656,23.29736A23.791,23.791,0,0,0,256,288v13.75781a24.322,24.322,0,0,0,.92188,6.59766l28.07031,98.23437a23.59064,23.59064,0,0,0,1.0747,2.8418l-15.17627,9.10742a23.82224,23.82224,0,0,0-10.42968,28.125l.30468.92578A23.96872,23.96872,0,0,0,283.53125,464h5.94287A23.71866,23.71866,0,0,0,288,472a24,24,0,0,0,48,0,23.71866,23.71866,0,0,0-1.47412-8h74.94824A23.71866,23.71866,0,0,0,408,472a24,24,0,0,0,48,0,23.71866,23.71866,0,0,0-1.47412-8H472V448H283.53125a7.98477,7.98477,0,0,1-7.57813-5.42969l-.30468-.92969a8.05332,8.05332,0,0,1,3.47656-9.38281l18.14014-10.88574A23.82,23.82,0,0,0,308.07031,424H443.92969a24.10321,24.10321,0,0,0,23.07812-17.40625l28.07031-98.25A24.17456,24.17456,0,0,0,496,301.75781V288A23.96064,23.96064,0,0,0,480,265.47412ZM192.85791,233.98047l-32.106-11.67188,13.21338-18.499L199.895,222.3291A23.89717,23.89717,0,0,0,192.85791,233.98047ZM112,32h32V48H112Zm32,32V80a16,16,0,0,1-32,0V64ZM64,124.64062l40.47217-23.126a31.41,31.41,0,0,0,39.68164,5.95166L168,131.3125v48.57275l-2-1.42822-23.14062-38.57422-13.71876,8.23438,23.15626,38.60156a16.10675,16.10675,0,0,0,4.40624,4.76172l4.2461,3.03271-15.80176,22.12256-21.30371-7.74512L64.03906,164.0293,64,152Zm48.15625,233.78907-7.82031,39.10156-36.25,79.75A4.64252,4.64252,0,0,1,63.86719,480h-5.8125l21.54687-93.35547A16.15237,16.15237,0,0,0,80,383.08984V310.80518l17.36719,21.70654,14.813,25.92285Zm63.76563,18.46484L168.55469,480h-9.69531l-14.72657-95.74609a15.93924,15.93924,0,0,0-1.92187-5.51172l-30.97656-54.21485a17.94092,17.94092,0,0,0-1.375-2.01172L81.75,287.37891A8.02337,8.02337,0,0,1,80,282.38672V264h72v30.82422a16.23943,16.23943,0,0,0,.67188,4.60156ZM154.23438,248H78.01562L64.15625,199.98047l-.05176-15.90088,50.15332,37.61963a15.96109,15.96109,0,0,0,4.125,2.22656l39.13428,14.23047ZM224,248h-8a8,8,0,0,1,0-16h8Zm96,224a8,8,0,1,1-8-8A8.00791,8.00791,0,0,1,320,472Zm120,0a8,8,0,1,1-8-8A8.00791,8.00791,0,0,1,440,472ZM416,192a8,8,0,0,1,16,0v8H416Zm-16,24v16h16V216h16v16h16V216h16v48H384V216Zm-80-48a8,8,0,0,1,16,0v8H320Zm-16,24v16h16V192h16v16h16V192h16v72H288V192ZM480,301.75781a7.81284,7.81284,0,0,1-.3125,2.19922l-28.07031,98.24219A8.02148,8.02148,0,0,1,443.92969,408H308.07031a7.91771,7.91771,0,0,1-5.42431-2.25635l-2.38428-3.97168L272.3125,303.96875A7.95471,7.95471,0,0,1,272,301.75781V288a8.00791,8.00791,0,0,1,8-8H472a8.00791,8.00791,0,0,1,8,8Z"/></svg>
